# Blender 5.1.1
# www.blender.org
mtllib Untitled.mtl
o Cube
v 1.000000 -1.000000 -1.000000
v 1.000000 1.000000 -1.000000
v 1.000000 -1.000000 1.000000
v 1.000000 1.000000 1.000000
v -1.000000 -1.000000 -2.000000
v -1.000000 1.000000 -1.000000
v -1.000000 -1.000000 1.000000
v -1.000000 1.000000 1.000000
vn -1.0000 -0.0000 -0.0000
vn -0.0000 -0.0000 -1.0000
vn 1.0000 -0.0000 -0.0000
vn -0.2357 -0.2357 0.9428
vn -0.0000 1.0000 -0.0000
vn -0.0000 -1.0000 -0.0000
vt -1.874552 -9.496255
vt -1.874552 -4.747151
vt 2.874552 -4.747151
vt 2.874552 -9.496255
vt -1.874552 0.001953
vt 2.874552 0.001953
vt -1.874552 4.751058
vt 2.874552 4.751058
vt -1.874552 9.500161
vt 2.874552 9.500161
vt -6.623656 0.001953
vt -6.623656 4.751058
vt 7.623656 4.751058
vt 7.623656 0.001953
s 0
usemtl Material.001
f 1/1/1 3/2/1 4/3/1 2/4/1
f 3/2/2 7/5/2 8/6/2 4/3/2
f 7/5/3 5/7/3 6/8/3 8/6/3
f 5/7/4 1/9/4 2/10/4 6/8/4
f 3/11/5 1/12/5 5/7/5 7/5/5
f 8/6/6 6/8/6 2/13/6 4/14/6
