# Blender 5.1.1
# www.blender.org
mtllib Cube2.mtl
o Cube
v -1.000000 -1.000000 1.000000
v -1.000000 1.000000 1.000000
v -1.000000 -1.000000 -1.000000
v -1.000000 1.000000 -1.000000
v 1.000000 -1.000000 2.000000
v 1.000000 1.000000 1.000000
v 1.000000 -1.000000 -1.000000
v 1.000000 1.000000 -1.000000
vn 1.0000 -0.0000 -0.0000
vn -0.0000 -0.0000 1.0000
vn -1.0000 -0.0000 -0.0000
vn 0.2357 -0.2357 -0.9428
vn -0.0000 1.0000 -0.0000
vn -0.0000 -1.0000 -0.0000
vt -1.874552 -9.496255
vt -1.874552 -4.747151
vt 2.874552 -4.747151
vt 2.874552 -9.496255
vt -1.874552 0.001953
vt 2.874552 0.001953
vt -1.874552 4.751058
vt 2.874552 4.751058
vt -1.874552 9.500161
vt 2.874552 9.500161
vt -6.623656 0.001953
vt -6.623656 4.751058
vt 7.623656 4.751058
vt 7.623656 0.001953
s 0
usemtl Material.001
f 1/1/1 3/2/1 4/3/1 2/4/1
f 3/2/2 7/5/2 8/6/2 4/3/2
f 7/5/3 5/7/3 6/8/3 8/6/3
f 5/7/4 1/9/4 2/10/4 6/8/4
f 3/11/5 1/12/5 5/7/5 7/5/5
f 8/6/6 6/8/6 2/13/6 4/14/6
o Cube.001
v 2.000000 -1.000000 1.000000
v 2.000000 1.000000 1.000000
v 2.000000 -1.000000 -1.000000
v 2.000000 1.000000 -1.000000
v 4.000000 -1.000000 1.000000
v 4.000000 1.000000 1.000000
v 4.000000 -1.000000 -1.000000
v 4.000000 1.000000 -1.000000
vn -1.0000 -0.0000 -0.0000
vn -0.0000 -0.0000 -1.0000
vn 1.0000 -0.0000 -0.0000
vn -0.0000 -0.0000 1.0000
vn -0.0000 -1.0000 -0.0000
vn -0.0000 1.0000 -0.0000
vt 0.375000 0.000000
vt 0.625000 0.000000
vt 0.625000 0.250000
vt 0.375000 0.250000
vt 0.625000 0.500000
vt 0.375000 0.500000
vt 0.625000 0.750000
vt 0.375000 0.750000
vt 0.625000 1.000000
vt 0.375000 1.000000
vt 0.125000 0.500000
vt 0.125000 0.750000
vt 0.875000 0.500000
vt 0.875000 0.750000
s 0
usemtl Material
f 9/15/7 10/16/7 12/17/7 11/18/7
f 11/18/8 12/17/8 16/19/8 15/20/8
f 15/20/9 16/19/9 14/21/9 13/22/9
f 13/22/10 14/21/10 10/23/10 9/24/10
f 11/25/11 15/20/11 13/22/11 9/26/11
f 16/19/12 12/27/12 10/28/12 14/21/12
